<svg width="135" height="47" viewBox="0 0 135 47" fill="none" xmlns="http://www.w3.org/2000/svg">
<path d="M13.32 14.288C12.936 13.584 12.408 13.048 11.736 12.68C11.064 12.312 10.28 12.128 9.384 12.128C8.392 12.128 7.512 12.352 6.744 12.8C5.976 13.248 5.376 13.888 4.944 14.72C4.512 15.552 4.296 16.512 4.296 17.6C4.296 18.72 4.512 19.696 4.944 20.528C5.392 21.36 6.008 22 6.792 22.448C7.576 22.896 8.488 23.12 9.528 23.12C10.808 23.12 11.856 22.784 12.672 22.112C13.488 21.424 14.024 20.472 14.28 19.256H8.52V16.688H17.592V19.616C17.368 20.784 16.888 21.864 16.152 22.856C15.416 23.848 14.464 24.648 13.296 25.256C12.144 25.848 10.848 26.144 9.408 26.144C7.792 26.144 6.328 25.784 5.016 25.064C3.72 24.328 2.696 23.312 1.944 22.016C1.208 20.72 0.84 19.248 0.84 17.6C0.84 15.952 1.208 14.48 1.944 13.184C2.696 11.872 3.72 10.856 5.016 10.136C6.328 9.4 7.784 9.032 9.384 9.032C11.272 9.032 12.912 9.496 14.304 10.424C15.696 11.336 16.656 12.624 17.184 14.288H13.32ZM25.9819 26.216C24.7019 26.216 23.5499 25.936 22.5259 25.376C21.5019 24.8 20.6939 23.992 20.1019 22.952C19.5259 21.912 19.2379 20.712 19.2379 19.352C19.2379 17.992 19.5339 16.792 20.1259 15.752C20.7339 14.712 21.5579 13.912 22.5979 13.352C23.6379 12.776 24.7979 12.488 26.0779 12.488C27.3579 12.488 28.5179 12.776 29.5579 13.352C30.5979 13.912 31.4139 14.712 32.0059 15.752C32.6139 16.792 32.9179 17.992 32.9179 19.352C32.9179 20.712 32.6059 21.912 31.9819 22.952C31.3739 23.992 30.5419 24.8 29.4859 25.376C28.4459 25.936 27.2779 26.216 25.9819 26.216ZM25.9819 23.288C26.5899 23.288 27.1579 23.144 27.6859 22.856C28.2299 22.552 28.6619 22.104 28.9819 21.512C29.3019 20.92 29.4619 20.2 29.4619 19.352C29.4619 18.088 29.1259 17.12 28.4539 16.448C27.7979 15.76 26.9899 15.416 26.0299 15.416C25.0699 15.416 24.2619 15.76 23.6059 16.448C22.9659 17.12 22.6459 18.088 22.6459 19.352C22.6459 20.616 22.9579 21.592 23.5819 22.28C24.2219 22.952 25.0219 23.288 25.9819 23.288Z" fill="#7C83FD"/>
<path d="M49.2786 9.248V26H45.9186V18.872H38.7426V26H35.3826V9.248H38.7426V16.136H45.9186V9.248H49.2786ZM64.9457 19.064C64.9457 19.544 64.9137 19.976 64.8497 20.36H55.1297C55.2097 21.32 55.5457 22.072 56.1377 22.616C56.7297 23.16 57.4577 23.432 58.3217 23.432C59.5697 23.432 60.4577 22.896 60.9857 21.824H64.6097C64.2257 23.104 63.4897 24.16 62.4017 24.992C61.3137 25.808 59.9777 26.216 58.3937 26.216C57.1137 26.216 55.9617 25.936 54.9377 25.376C53.9297 24.8 53.1377 23.992 52.5617 22.952C52.0017 21.912 51.7217 20.712 51.7217 19.352C51.7217 17.976 52.0017 16.768 52.5617 15.728C53.1217 14.688 53.9057 13.888 54.9137 13.328C55.9217 12.768 57.0817 12.488 58.3937 12.488C59.6577 12.488 60.7857 12.76 61.7777 13.304C62.7857 13.848 63.5617 14.624 64.1057 15.632C64.6657 16.624 64.9457 17.768 64.9457 19.064ZM61.4657 18.104C61.4497 17.24 61.1377 16.552 60.5297 16.04C59.9217 15.512 59.1777 15.248 58.2977 15.248C57.4657 15.248 56.7617 15.504 56.1857 16.016C55.6257 16.512 55.2817 17.208 55.1537 18.104H61.4657ZM66.5342 19.304C66.5342 17.96 66.7982 16.768 67.3262 15.728C67.8702 14.688 68.5982 13.888 69.5102 13.328C70.4382 12.768 71.4702 12.488 72.6062 12.488C73.5982 12.488 74.4622 12.688 75.1982 13.088C75.9502 13.488 76.5502 13.992 76.9982 14.6V12.704H80.3822V26H76.9982V24.056C76.5662 24.68 75.9662 25.2 75.1982 25.616C74.4462 26.016 73.5742 26.216 72.5822 26.216C71.4622 26.216 70.4382 25.928 69.5102 25.352C68.5982 24.776 67.8702 23.968 67.3262 22.928C66.7982 21.872 66.5342 20.664 66.5342 19.304ZM76.9982 19.352C76.9982 18.536 76.8382 17.84 76.5182 17.264C76.1982 16.672 75.7662 16.224 75.2222 15.92C74.6782 15.6 74.0942 15.44 73.4702 15.44C72.8462 15.44 72.2702 15.592 71.7422 15.896C71.2142 16.2 70.7822 16.648 70.4462 17.24C70.1262 17.816 69.9662 18.504 69.9662 19.304C69.9662 20.104 70.1262 20.808 70.4462 21.416C70.7822 22.008 71.2142 22.464 71.7422 22.784C72.2862 23.104 72.8622 23.264 73.4702 23.264C74.0942 23.264 74.6782 23.112 75.2222 22.808C75.7662 22.488 76.1982 22.04 76.5182 21.464C76.8382 20.872 76.9982 20.168 76.9982 19.352ZM87.0238 8.24V26H83.6638V8.24H87.0238ZM94.2555 15.464V21.896C94.2555 22.344 94.3595 22.672 94.5675 22.88C94.7915 23.072 95.1595 23.168 95.6715 23.168H97.2315V26H95.1195C92.2875 26 90.8715 24.624 90.8715 21.872V15.464H89.2875V12.704H90.8715V9.416H94.2555V12.704H97.2315V15.464H94.2555ZM107.136 12.512C108.144 12.512 109.04 12.736 109.824 13.184C110.608 13.616 111.216 14.264 111.648 15.128C112.096 15.976 112.32 17 112.32 18.2V26H108.96V18.656C108.96 17.6 108.696 16.792 108.168 16.232C107.64 15.656 106.92 15.368 106.008 15.368C105.08 15.368 104.344 15.656 103.8 16.232C103.272 16.792 103.008 17.6 103.008 18.656V26H99.6482V8.24H103.008V14.36C103.44 13.784 104.016 13.336 104.736 13.016C105.456 12.68 106.256 12.512 107.136 12.512ZM128.235 12.704L120.003 32.288H116.427L119.307 25.664L113.979 12.704H117.747L121.179 21.992L124.659 12.704H128.235ZM131.535 26.168C130.927 26.168 130.423 25.984 130.023 25.616C129.639 25.232 129.447 24.76 129.447 24.2C129.447 23.64 129.639 23.176 130.023 22.808C130.423 22.424 130.927 22.232 131.535 22.232C132.127 22.232 132.615 22.424 132.999 22.808C133.383 23.176 133.575 23.64 133.575 24.2C133.575 24.76 133.383 25.232 132.999 25.616C132.615 25.984 132.127 26.168 131.535 26.168Z" fill="#0E4886"/>
<path d="M37.5 37.5C37.5 37.5 79 55.5 125 37.5" stroke="#7C83FD" stroke-width="3" stroke-linecap="round" stroke-linejoin="round"/>
</svg>
