<svg width="90" height="89" viewBox="0 0 90 89" fill="none" xmlns="http://www.w3.org/2000/svg">
<ellipse cx="45" cy="44.1788" rx="45" ry="44.1788" fill="#7C83FD"/>
<path d="M39.98 39.432C39.404 38.376 38.612 37.572 37.604 37.02C36.596 36.468 35.42 36.192 34.076 36.192C32.588 36.192 31.268 36.528 30.116 37.2C28.964 37.872 28.064 38.832 27.416 40.08C26.768 41.328 26.444 42.768 26.444 44.4C26.444 46.08 26.768 47.544 27.416 48.792C28.088 50.04 29.012 51 30.188 51.672C31.364 52.344 32.732 52.68 34.292 52.68C36.212 52.68 37.784 52.176 39.008 51.168C40.232 50.136 41.036 48.708 41.42 46.884H32.78V43.032H46.388V47.424C46.052 49.176 45.332 50.796 44.228 52.284C43.124 53.772 41.696 54.972 39.944 55.884C38.216 56.772 36.272 57.216 34.112 57.216C31.688 57.216 29.492 56.676 27.524 55.596C25.58 54.492 24.044 52.968 22.916 51.024C21.812 49.08 21.26 46.872 21.26 44.4C21.26 41.928 21.812 39.72 22.916 37.776C24.044 35.808 25.58 34.284 27.524 33.204C29.492 32.1 31.676 31.548 34.076 31.548C36.908 31.548 39.368 32.244 41.456 33.636C43.544 35.004 44.984 36.936 45.776 39.432H39.98ZM58.9728 57.324C57.0528 57.324 55.3248 56.904 53.7888 56.064C52.2528 55.2 51.0408 53.988 50.1528 52.428C49.2888 50.868 48.8568 49.068 48.8568 47.028C48.8568 44.988 49.3008 43.188 50.1888 41.628C51.1008 40.068 52.3368 38.868 53.8968 38.028C55.4568 37.164 57.1968 36.732 59.1168 36.732C61.0368 36.732 62.7768 37.164 64.3368 38.028C65.8968 38.868 67.1208 40.068 68.0088 41.628C68.9208 43.188 69.3768 44.988 69.3768 47.028C69.3768 49.068 68.9088 50.868 67.9728 52.428C67.0608 53.988 65.8128 55.2 64.2288 56.064C62.6688 56.904 60.9168 57.324 58.9728 57.324ZM58.9728 52.932C59.8848 52.932 60.7368 52.716 61.5288 52.284C62.3448 51.828 62.9928 51.156 63.4728 50.268C63.9528 49.38 64.1928 48.3 64.1928 47.028C64.1928 45.132 63.6888 43.68 62.6808 42.672C61.6968 41.64 60.4848 41.124 59.0448 41.124C57.6048 41.124 56.3928 41.64 55.4088 42.672C54.4488 43.68 53.9688 45.132 53.9688 47.028C53.9688 48.924 54.4368 50.388 55.3728 51.42C56.3328 52.428 57.5328 52.932 58.9728 52.932Z" fill="#EDFBFD"/>
</svg>
